<?xml version="1.0" encoding="utf-8"?>
<svg version="1.1"
	 id="Ebene_1" xmlns:cc="http://creativecommons.org/ns#" xmlns:dc="http://purl.org/dc/elements/1.1/" xmlns:inkscape="http://www.inkscape.org/namespaces/inkscape" xmlns:rdf="http://www.w3.org/1999/02/22-rdf-syntax-ns#" xmlns:sodipodi="http://sodipodi.sourceforge.net/DTD/sodipodi-0.dtd" xmlns:svg="http://www.w3.org/2000/svg"
	 xmlns="http://www.w3.org/2000/svg" xmlns:xlink="http://www.w3.org/1999/xlink" x="0px" y="0px" viewBox="0 0 32 40"
	 style="enable-background:new 0 0 32 40;" xml:space="preserve">
<style type="text/css">
	.st0{fill:#364F6B;}
</style>
<g transform="translate(0,-1020.3622)">
	<path class="st0" d="M16,1020.4c-8.8,0-16,7.2-16,16c0,8.8,7.2,16,16,16s16-7.2,16-16C32,1027.5,24.8,1020.4,16,1020.4z M16,1021.4
		c8.3,0,15,6.7,15,14.9s-6.7,14.9-15,14.9s-14.9-6.7-14.9-14.9S7.7,1021.4,16,1021.4z M16,1025.5c-0.1,0-0.2,0-0.3,0.1l-1.8,1.6
		c-0.1,0.1-0.2,0.2-0.2,0.3v13.4h-1.2v1.5h2.9v2.8c-0.3,0.2-0.4,0.5-0.4,0.8c0,0.6,0.5,1.1,1,1.1c0.6,0,1-0.5,1-1.1
		c0-0.3-0.2-0.6-0.4-0.8v-2.8h2.9v-1.5h-1.2v-13.4c0-0.1-0.1-0.2-0.2-0.3l-1.8-1.6C16.2,1025.6,16.1,1025.5,16,1025.5z M16,1027.5
		l0.4,0.4v12.9c0,0.1,0,0.1,0,0.2h-0.8c0,0,0-0.1,0-0.2v-12.9L16,1027.5z"/>
</g>
</svg>
